#Comment line ignore any data following # character 
#Hierarchical Translation and Rotation (.htr) file 
[Header]	
#Header keywords are followed by a single value 
FileType HTR		#Single word string
DataType HTRS		#Translation followed by rotation and scale data
FileVersion 1		#integer
NumSegments 64		#integer
NumFrames 3		#integer
DataFrameRate 30		#integer, data frame rate in this file
EulerRotationOrder ZYX
CalibrationUnits mm
RotationUnits Degrees
GlobalAxisofGravity Y
BoneLengthAxis Y
ScaleFactor 1.00
[SegmentNames&Hierarchy]
#CHILD	PARENT
Pinger_Root GLOBAL
Pelvis Pinger_Root
L_Hip Pelvis
R_Hip Pelvis
Rear_Leg01 Pelvis
Spine1 Pelvis
L_Leg01 L_Hip
L_Leg02 L_Leg01
L_Leg03 L_Leg02
L_Foot L_Leg03
L_Toe1_01 L_Foot
L_Toe2_01 L_Foot
L_Toe3_01 L_Foot
planeAlignerLeft L_Foot
L_Toe1_02 L_Toe1_01
L_Toe1_03 L_Toe1_02
L_Toe2_02 L_Toe2_01
L_Toe2_03 L_Toe2_02
L_Toe3_02 L_Toe3_01
L_Toe3_03 L_Toe3_02
planeLockWeightLeft planeAlignerLeft
R_Leg01 R_Hip
R_Leg02 R_Leg01
R_Leg03 R_Leg02
R_Foot R_Leg03
planeAlignerRight R_Foot
R_Toe1_01 R_Foot
R_Toe2_01 R_Foot
R_Toe3_01 R_Foot
planeLockWeightRight planeAlignerRight
R_Toe1_02 R_Toe1_01
R_Toe1_03 R_Toe1_02
R_Toe2_02 R_Toe2_01
R_Toe2_03 R_Toe2_02
R_Toe3_02 R_Toe3_01
R_Toe3_03 R_Toe3_02
Rear_Leg02 Rear_Leg01
Rear_Leg03 Rear_Leg02
Rear_Leg04 Rear_Leg03
Rear_Foot Rear_Leg04
planeAlignerCenter Rear_Foot
Rear_Toe1_01 Rear_Foot
Rear_Toe2_01 Rear_Foot
Rear_Toe3_01 Rear_Foot
planeLockWeightCenter planeAlignerCenter
Rear_Toe1_02 Rear_Toe1_01
Rear_Toe1_03 Rear_Toe1_02
Rear_Toe2_02 Rear_Toe2_01
Rear_Toe2_03 Rear_Toe2_02
Rear_Toe3_02 Rear_Toe3_01
Rear_Toe3_03 Rear_Toe3_02
Back_Bone Spine1
Head Spine1
Motor_Bone Back_Bone
Ping_Mechanism Back_Bone
BN_LookIK Head
bottomMouth Head
L_Mouth01 Head
L_mouthFront Head
mouthGun Head
R_Mouth01 Head
R_mouthFront Head
TopMouth Head
weapon_bone Head
[BasePosition]
#SegmentName Tx, Ty, Tz, Rx, Ry, Rz, BoneLength
Pinger_Root 0.000000 0.000000 0.000000 -90.000000 0.000000 0.000000 10.000000 
Pelvis 0.000000 0.000000 0.000000 0.000000 0.000000 0.000000 10.000000 
L_Hip 0.000000 0.000000 0.000000 0.000000 0.000000 0.000000 10.000000 
R_Hip 0.000000 0.000000 0.000000 0.000000 0.000000 0.000000 10.000000 
Rear_Leg01 0.000000 0.000000 0.000000 0.000000 0.000000 0.000000 10.000000 
Spine1 0.000000 0.000000 0.000000 0.000000 0.000000 0.000000 10.000000 
L_Leg01 0.000000 0.000000 0.000000 0.000000 0.000000 0.000000 10.000000 
L_Leg02 0.000000 0.000000 0.000000 0.000000 0.000000 0.000000 10.000000 
L_Leg03 0.000000 0.000000 0.000000 0.000000 0.000000 0.000000 10.000000 
L_Foot 0.000000 0.000000 0.000000 0.000000 0.000000 0.000000 10.000000 
L_Toe1_01 0.000000 0.000000 0.000000 0.000000 0.000000 0.000000 10.000000 
L_Toe2_01 0.000000 0.000000 0.000000 0.000000 0.000000 0.000000 10.000000 
L_Toe3_01 0.000000 0.000000 0.000000 0.000000 0.000000 0.000000 10.000000 
planeAlignerLeft 0.000000 0.000000 0.000000 0.000000 0.000000 0.000000 10.000000 
L_Toe1_02 0.000000 0.000000 0.000000 0.000000 0.000000 0.000000 10.000000 
L_Toe1_03 0.000000 0.000000 0.000000 0.000000 0.000000 0.000000 10.000000 
L_Toe2_02 0.000000 0.000000 0.000000 0.000000 0.000000 0.000000 10.000000 
L_Toe2_03 0.000000 0.000000 0.000000 0.000000 0.000000 0.000000 10.000000 
L_Toe3_02 0.000000 0.000000 0.000000 0.000000 0.000000 0.000000 10.000000 
L_Toe3_03 0.000000 0.000000 0.000000 0.000000 0.000000 0.000000 10.000000 
planeLockWeightLeft 0.000000 0.000000 0.000000 0.000000 0.000000 0.000000 10.000000 
R_Leg01 0.000000 0.000000 0.000000 0.000000 0.000000 0.000000 10.000000 
R_Leg02 0.000000 0.000000 0.000000 0.000000 0.000000 0.000000 10.000000 
R_Leg03 0.000000 0.000000 0.000000 0.000000 0.000000 0.000000 10.000000 
R_Foot 0.000000 0.000000 0.000000 0.000000 0.000000 0.000000 10.000000 
planeAlignerRight 0.000000 0.000000 0.000000 0.000000 0.000000 0.000000 10.000000 
R_Toe1_01 0.000000 0.000000 0.000000 0.000000 0.000000 0.000000 10.000000 
R_Toe2_01 0.000000 0.000000 0.000000 0.000000 0.000000 0.000000 10.000000 
R_Toe3_01 0.000000 0.000000 0.000000 0.000000 0.000000 0.000000 10.000000 
planeLockWeightRight 0.000000 0.000000 0.000000 0.000000 0.000000 0.000000 10.000000 
R_Toe1_02 0.000000 0.000000 0.000000 0.000000 0.000000 0.000000 10.000000 
R_Toe1_03 0.000000 0.000000 0.000000 0.000000 0.000000 0.000000 10.000000 
R_Toe2_02 0.000000 0.000000 0.000000 0.000000 0.000000 0.000000 10.000000 
R_Toe2_03 0.000000 0.000000 0.000000 0.000000 0.000000 0.000000 10.000000 
R_Toe3_02 0.000000 0.000000 0.000000 0.000000 0.000000 0.000000 10.000000 
R_Toe3_03 0.000000 0.000000 0.000000 0.000000 0.000000 0.000000 10.000000 
Rear_Leg02 0.000000 0.000000 0.000000 0.000000 0.000000 0.000000 10.000000 
Rear_Leg03 0.000000 0.000000 0.000000 0.000000 0.000000 0.000000 10.000000 
Rear_Leg04 0.000000 0.000000 0.000000 0.000000 0.000000 0.000000 10.000000 
Rear_Foot 0.000000 0.000000 0.000000 0.000000 0.000000 0.000000 10.000000 
planeAlignerCenter 0.000000 0.000000 0.000000 0.000000 0.000000 0.000000 10.000000 
Rear_Toe1_01 0.000000 0.000000 0.000000 0.000000 0.000000 0.000000 10.000000 
Rear_Toe2_01 0.000000 0.000000 0.000000 0.000000 0.000000 0.000000 10.000000 
Rear_Toe3_01 0.000000 0.000000 0.000000 0.000000 0.000000 0.000000 10.000000 
planeLockWeightCenter 0.000000 0.000000 0.000000 0.000000 0.000000 0.000000 10.000000 
Rear_Toe1_02 0.000000 0.000000 0.000000 0.000000 0.000000 0.000000 10.000000 
Rear_Toe1_03 0.000000 0.000000 0.000000 0.000000 0.000000 0.000000 10.000000 
Rear_Toe2_02 0.000000 0.000000 0.000000 0.000000 0.000000 0.000000 10.000000 
Rear_Toe2_03 0.000000 0.000000 0.000000 0.000000 0.000000 0.000000 10.000000 
Rear_Toe3_02 0.000000 0.000000 0.000000 0.000000 0.000000 0.000000 10.000000 
Rear_Toe3_03 0.000000 0.000000 0.000000 0.000000 0.000000 0.000000 10.000000 
Back_Bone 0.000000 0.000000 0.000000 0.000000 0.000000 0.000000 10.000000 
Head 0.000000 0.000000 0.000000 0.000000 0.000000 0.000000 10.000000 
Motor_Bone 0.000000 0.000000 0.000000 0.000000 0.000000 0.000000 10.000000 
Ping_Mechanism 0.000000 0.000000 0.000000 0.000000 0.000000 0.000000 10.000000 
BN_LookIK 0.000000 0.000000 0.000000 0.000000 0.000000 0.000000 10.000000 
bottomMouth 0.000000 0.000000 0.000000 0.000000 0.000000 0.000000 10.000000 
L_Mouth01 0.000000 0.000000 0.000000 0.000000 0.000000 0.000000 10.000000 
L_mouthFront 0.000000 0.000000 0.000000 0.000000 0.000000 0.000000 10.000000 
mouthGun 0.000000 0.000000 0.000000 0.000000 0.000000 0.000000 10.000000 
R_Mouth01 0.000000 0.000000 0.000000 0.000000 0.000000 0.000000 10.000000 
R_mouthFront 0.000000 0.000000 0.000000 0.000000 0.000000 0.000000 10.000000 
TopMouth 0.000000 0.000000 0.000000 0.000000 0.000000 0.000000 10.000000 
weapon_bone 0.000000 0.000000 0.000000 0.000000 0.000000 0.000000 10.000000 
#Beginning of Data. Separated by tabs
#Fr	Tx	Ty	Tz	Rx	Ry	Rz	SF
[Pinger_Root]
8 0.000000 0.000000 0.000000 -0.000075 -0.000000 -0.000020 0.000000
9 0.000000 0.000000 0.000000 -0.000075 -0.000000 -0.000020 0.000000
10 0.000000 0.000000 0.000000 -0.000075 -0.000000 -0.000020 0.000000
[Pelvis]
8 -142.583832 -312.934662 4207.184570 -126.071281 -80.937454 109.994759 4221.215332
9 -149.050156 -323.337463 4157.945313 -138.863358 -82.796959 123.003662 4173.160645
10 -161.856781 -316.337067 4119.818359 -150.705780 -83.673676 135.065430 4135.114258
[L_Hip]
8 5.766392 125.831482 872.656799 160.158691 -45.484905 122.312202 881.701050
9 5.766392 125.831482 872.656799 160.158691 -45.484905 122.312202 881.701050
10 5.766392 125.831482 872.656799 160.158691 -45.484913 122.312202 881.701050
[R_Hip]
8 5.765438 125.836372 -872.654907 38.087841 49.812687 125.703735 881.699829
9 5.765438 125.836372 -872.654907 38.087841 49.812687 125.703735 881.699829
10 5.765438 125.836372 -872.654907 38.087841 49.812687 125.703735 881.699829
[Rear_Leg01]
8 -192.298416 -925.602966 -0.001907 175.758881 9.435087 -146.256912 945.367432
9 -192.298416 -925.602966 -0.001907 174.873779 9.603458 -144.629578 945.367432
10 -192.298416 -925.602966 -0.001907 173.802795 9.770867 -144.257767 945.367432
[Spine1]
8 290.604584 5.007505 0.000477 13.280478 -0.783480 14.684830 290.647736
9 290.604584 5.007505 0.000477 13.303247 -0.068224 14.768086 290.647736
10 290.604584 5.007505 0.000477 13.289125 0.678424 13.756210 290.647736
[L_Leg01]
8 761.932007 -0.002384 -0.069261 18.863119 -23.102911 17.714701 761.932068
9 761.932007 -0.002384 -0.069261 20.564886 -22.311024 15.018203 761.932068
10 761.932007 -0.002384 -0.069261 21.222429 -21.457596 13.347688 761.932068
[L_Leg02]
8 1441.140503 -0.000954 -0.000715 -0.532761 0.280181 -121.379578 1441.140503
9 1441.140503 -0.000954 -0.000715 -0.379514 0.209636 -121.730751 1441.140503
10 1441.140503 -0.000954 -0.000715 -0.156022 0.123394 -122.397621 1441.140503
[L_Leg03]
8 1686.963989 -0.000715 -0.000954 0.039832 -0.013765 99.288300 1686.963989
9 1686.963989 -0.000715 -0.000954 0.034606 -0.012007 100.647377 1686.963989
10 1686.963989 -0.000715 -0.000954 0.029423 -0.010126 102.006462 1686.963989
[L_Foot]
8 3041.570068 -30.715107 11.297464 -2.664069 11.791038 41.821156 3041.746094
9 3041.570068 -30.715107 11.297464 -2.169804 10.999518 41.422089 3041.746094
10 3041.570068 -30.715107 11.297464 -1.429654 10.041916 41.244564 3041.746094
[L_Toe1_01]
8 -188.216690 -224.732346 -21.137953 94.621368 -20.846260 178.389069 293.899567
9 -188.216690 -224.732346 -21.137953 94.621361 -20.846252 178.389069 293.899567
10 -188.216690 -224.732346 -21.137953 94.621361 -20.846258 178.389069 293.899567
[L_Toe2_01]
8 200.746536 -219.926590 148.838394 -103.114754 -23.047394 -32.408367 332.896027
9 200.746536 -219.926590 148.838394 -103.114761 -23.047392 -32.408360 332.896027
10 200.746536 -219.926590 148.838394 -103.114754 -23.047394 -32.408375 332.896027
[L_Toe3_01]
8 188.832520 -219.859131 -191.078659 -105.774963 27.009623 -55.716061 347.140900
9 188.832520 -219.859131 -191.078659 -105.774963 27.009623 -55.716061 347.140900
10 188.832520 -219.859131 -191.078659 -105.774963 27.009619 -55.716057 347.140900
[planeAlignerLeft]
8 0.812531 -811.448792 -0.314951 0.000000 -90.000000 -90.001900 811.449280
9 0.812531 -811.448792 -0.314951 0.000000 -90.000000 -90.001900 811.449280
10 0.812531 -811.448792 -0.314951 0.000000 -90.000000 -90.001900 811.449280
[L_Toe1_02]
8 413.761139 0.000477 0.000000 0.001661 0.070897 0.001661 413.761139
9 413.761139 0.000477 0.000000 0.001661 0.070897 0.001661 413.761139
10 413.761139 0.000477 0.000000 0.001661 0.070897 0.001661 413.761139
[L_Toe1_03]
8 464.317322 0.000358 -0.000089 0.001673 -0.448396 -0.003292 464.317322
9 464.317322 0.000358 -0.000089 0.001673 -0.448396 -0.003292 464.317322
10 464.317322 0.000358 -0.000089 0.001673 -0.448396 -0.003292 464.317322
[L_Toe2_02]
8 342.235809 -0.000477 0.000238 0.001179 -79.352142 0.001179 342.235809
9 342.235809 -0.000477 0.000238 0.001179 -79.347527 0.001179 342.235809
10 342.235809 -0.000477 0.000238 0.001179 -79.342941 0.001179 342.235809
[L_Toe2_03]
8 420.210846 -0.000715 0.000000 -179.998642 68.908211 -179.995087 420.210846
9 420.210846 -0.000715 0.000000 -179.998642 68.908211 -179.995087 420.210846
10 420.210846 -0.000715 0.000000 -179.998642 68.908211 -179.995087 420.210846
[L_Toe3_02]
8 329.270111 0.000954 0.000000 0.004675 -84.746925 0.004675 329.270111
9 329.270111 0.000954 0.000000 0.004675 -84.743568 0.004675 329.270111
10 329.270111 0.000954 0.000000 0.004675 -84.740257 0.004675 329.270111
[L_Toe3_03]
8 439.137451 -0.001907 0.000954 179.993240 43.140900 -179.999146 439.137451
9 439.137451 -0.001907 0.000954 179.993240 43.140900 -179.999146 439.137451
10 439.137451 -0.001907 0.000954 179.993240 43.140900 -179.999146 439.137451
[planeLockWeightLeft]
8 -0.000954 0.000238 -0.000305 -0.011826 -0.004376 0.005620 0.001029
9 -0.000954 0.000238 -0.000305 -0.011826 -0.004376 0.005620 0.001029
10 -0.000954 0.000238 -0.000305 -0.011826 -0.004376 0.005620 0.001029
[R_Leg01]
8 761.455627 -0.001907 -0.000358 114.338745 -41.917713 28.108801 761.455688
9 761.455627 -0.001907 -0.000358 111.889969 -40.354950 30.474167 761.455688
10 761.455627 -0.001907 -0.000358 109.855263 -39.214775 31.982439 761.455688
[R_Leg02]
8 1441.140625 0.000000 -0.000238 1.226834 -0.375096 -98.404938 1441.140625
9 1441.140625 0.000000 -0.000238 1.195811 -0.355497 -99.348953 1441.140625
10 1441.140625 0.000000 -0.000238 1.164468 -0.336411 -100.292946 1441.140625
[R_Leg03]
8 1686.963989 0.000954 0.001431 -0.028563 0.006674 102.609734 1686.963989
9 1686.963989 0.000954 0.001431 -0.026208 0.006581 103.319511 1686.963989
10 1686.963989 0.000954 0.001431 -0.023854 0.006459 104.029404 1686.963989
[R_Foot]
8 3041.560059 -30.531288 -11.204481 6.434531 -31.884457 33.136662 3041.734131
9 3041.560059 -30.531288 -11.204481 7.232297 -32.586109 32.683147 3041.734131
10 3041.560059 -30.531288 -11.204481 8.210175 -33.408531 32.374584 3041.734131
[planeAlignerRight]
8 -0.635147 -812.270569 -0.364304 0.000000 -89.960434 -90.005180 812.270874
9 -0.635147 -812.270569 -0.364304 0.000000 -89.960434 -90.005180 812.270874
10 -0.635147 -812.270569 -0.364304 0.000000 -89.960434 -90.005180 812.270874
[R_Toe1_01]
8 -188.383347 -224.864899 21.052242 78.327164 0.810639 -176.062744 294.101532
9 -188.383347 -224.864899 21.052242 78.327164 0.810639 -176.062744 294.101532
10 -188.383347 -224.864899 21.052242 78.327164 0.810639 -176.062744 294.101532
[R_Toe2_01]
8 200.637817 -220.002121 -148.787384 -94.913536 45.204365 -40.768372 332.857574
9 200.637817 -220.002121 -148.787384 -94.913536 45.204365 -40.768372 332.857574
10 200.637817 -220.002121 -148.787384 -94.913536 45.204365 -40.768372 332.857574
[R_Toe3_01]
8 188.606735 -220.092957 191.126343 -77.777176 -16.659966 -55.221592 347.192566
9 188.606735 -220.092957 191.126343 -77.777176 -16.659969 -55.221600 347.192566
10 188.606735 -220.092957 191.126343 -77.777176 -16.659966 -55.221588 347.192566
[planeLockWeightRight]
8 -0.000477 0.000000 0.000000 -0.011823 -0.004379 -0.000027 0.000477
9 -0.000477 0.000000 0.000000 -0.011823 -0.004379 -0.000027 0.000477
10 -0.000477 0.000000 0.000000 -0.011823 -0.004379 -0.000027 0.000477
[R_Toe1_02]
8 413.762085 0.000477 -0.000119 0.001534 -9.821844 0.001534 413.762085
9 413.762085 0.000477 -0.000119 0.001534 -9.821651 0.001534 413.762085
10 413.762085 0.000477 -0.000119 0.001534 -9.821462 0.001534 413.762085
[R_Toe1_03]
8 464.317810 0.000000 0.001088 0.001388 9.998922 -0.003176 464.317810
9 464.317810 0.000000 0.001088 0.001388 9.998730 -0.003176 464.317810
10 464.317810 0.000000 0.001088 0.001388 9.998539 -0.003176 464.317810
[R_Toe2_02]
8 342.234741 -0.000954 0.000238 -0.002332 -79.833969 -0.002332 342.234741
9 342.234741 -0.000954 0.000238 -0.002332 -79.833969 -0.002332 342.234741
10 342.234741 -0.000954 0.000238 -0.002332 -79.833939 -0.002332 342.234741
[R_Toe2_03]
8 420.210846 0.000715 -0.000268 -179.995636 64.198990 -179.999222 420.210846
9 420.210846 0.000715 -0.000268 -179.995636 64.198975 -179.999222 420.210846
10 420.210846 0.000715 -0.000268 -179.995636 64.198975 -179.999222 420.210846
[R_Toe3_02]
8 329.270355 -0.000477 -0.000954 0.001175 -84.685371 0.001175 329.270355
9 329.270355 -0.000477 -0.000954 0.001175 -84.683380 0.001175 329.270355
10 329.270355 -0.000477 -0.000954 0.001175 -84.681534 0.001175 329.270355
[R_Toe3_03]
8 439.137939 0.000238 0.001431 -179.997650 45.533463 -179.990097 439.137939
9 439.137939 0.000238 0.001431 -179.997650 45.533470 -179.990097 439.137939
10 439.137939 0.000238 0.001431 -179.997650 45.533474 -179.990097 439.137939
[Rear_Leg02]
8 1162.777710 -0.029802 0.005960 1.999586 -2.259281 -111.365822 1162.777710
9 1162.777710 -0.029802 0.005960 2.194074 -2.069129 -118.239426 1162.777710
10 1162.777710 -0.029802 0.005960 2.314031 -1.931821 -124.029106 1162.777710
[Rear_Leg03]
8 607.192505 -0.013351 -0.073195 0.010199 -0.005669 74.491737 607.192505
9 607.192505 -0.013351 -0.073195 0.010136 -0.005781 75.752037 607.192505
10 607.192505 -0.013351 -0.073195 0.010097 -0.005849 76.518433 607.192505
[Rear_Leg04]
8 995.874512 -0.020504 -0.011921 -0.045503 -0.017257 81.878502 995.874573
9 995.874512 -0.020504 -0.011921 -0.042408 -0.019139 85.577629 995.874573
10 995.874512 -0.020504 -0.011921 -0.042816 -0.018207 88.083229 995.874573
[Rear_Foot]
8 3096.176270 -0.067472 -0.041425 -23.679317 82.507759 141.967972 3096.176270
9 3096.176270 -0.067472 -0.041425 -23.895292 82.587517 142.832733 3096.176270
10 3096.176270 -0.067472 -0.041425 -24.266476 82.725922 143.866653 3096.176270
[planeAlignerCenter]
8 0.350077 0.966311 -838.790894 0.000009 0.000003 -179.999985 838.791565
9 0.350077 0.966311 -838.790894 0.000009 0.000003 -179.999985 838.791565
10 0.350077 0.966311 -838.790894 0.000009 0.000003 -179.999985 838.791565
[Rear_Toe1_01]
8 0.653352 83.966492 -371.173737 0.711608 22.887381 102.532318 380.553192
9 0.653352 83.966492 -371.173737 0.678679 22.882935 101.564919 380.553192
10 0.653352 83.966492 -371.173737 0.645835 22.877968 100.597420 380.553192
[Rear_Toe2_01]
8 178.200760 -294.826019 -362.060547 -8.899854 20.713915 -52.718159 499.765686
9 178.200760 -294.826019 -362.060547 -8.890643 20.716713 -53.814495 499.765686
10 178.200760 -294.826019 -362.060547 -8.881245 20.712687 -55.093353 499.765686
[Rear_Toe3_01]
8 -153.359680 -308.780914 -362.060852 3.938954 20.124367 -97.771751 499.952881
9 -153.359680 -308.780914 -362.060852 3.945061 20.136755 -98.852043 499.952881
10 -153.359680 -308.780914 -362.060852 3.954277 20.145615 -100.113831 499.952881
[planeLockWeightCenter]
8 -0.000062 0.000238 0.000000 -0.011814 -0.004373 -0.000015 0.000246
9 -0.000062 0.000238 0.000000 -0.011814 -0.004373 -0.000015 0.000246
10 -0.000062 0.000238 0.000000 -0.011814 -0.004373 -0.000015 0.000246
[Rear_Toe1_02]
8 379.707825 0.194073 0.000477 -0.002640 -33.276093 -0.002640 379.707855
9 379.707825 0.194073 0.000477 -0.002640 -33.275414 -0.002640 379.707855
10 379.707825 0.194073 0.000477 -0.002640 -33.274738 -0.002640 379.707855
[Rear_Toe1_03]
8 500.129700 0.165701 0.000119 -0.008839 83.777763 -0.012341 500.129761
9 500.129700 0.165701 0.000119 -0.008844 83.781013 -0.012346 500.129761
10 500.129700 0.165701 0.000119 -0.008850 83.784317 -0.012352 500.129761
[Rear_Toe2_02]
8 340.494507 0.000238 -0.000954 0.001189 -71.697655 0.001189 340.494507
9 340.494507 0.000238 -0.000954 0.001189 -71.745903 0.001189 340.494507
10 340.494507 0.000238 -0.000954 0.001189 -71.794167 0.001189 340.494507
[Rear_Toe2_03]
8 433.103577 0.000000 0.000238 0.007765 72.614609 0.007765 433.103546
9 433.103577 0.000000 0.000238 0.007820 72.737648 0.007820 433.103546
10 433.103577 0.000000 0.000238 0.007876 72.860611 0.007876 433.103546
[Rear_Toe3_02]
8 340.494141 -0.000358 -0.000477 0.008195 -67.031342 -0.009368 340.494171
9 340.494141 -0.000358 -0.000477 0.006853 -67.219307 -0.007312 340.494171
10 340.494141 -0.000358 -0.000477 0.005482 -67.407257 -0.005228 340.494171
[Rear_Toe3_03]
8 433.103577 0.001431 -0.000238 -0.000930 65.593834 -0.004508 433.103546
9 433.103577 0.001431 -0.000238 -0.000964 65.889015 -0.004540 433.103546
10 433.103577 0.001431 -0.000238 -0.000999 66.184174 -0.004572 433.103546
[Back_Bone]
8 1312.175781 -701.934692 0.000954 1.227971 1.765352 -99.094200 1488.125488
9 1312.175781 -701.934692 0.000954 -0.401558 1.778005 -98.237373 1488.125488
10 1312.175781 -701.934692 0.000954 -1.633582 1.858498 -96.328873 1488.125488
[Head]
8 1406.159424 809.709290 0.001431 13.865783 0.720519 12.504326 1622.625488
9 1406.159424 809.709290 0.001431 12.199706 1.067616 11.930193 1622.625488
10 1406.159424 809.709290 0.001431 12.058864 1.211623 10.693343 1622.625488
[Motor_Bone]
8 1158.364380 -417.834747 0.000477 -0.000105 0.000046 -105.985291 1231.419434
9 1158.364380 -417.834747 0.000477 -0.000105 0.000046 -105.985291 1231.419434
10 1158.364380 -417.834747 0.000477 -0.000105 0.000046 -105.985291 1231.419434
[Ping_Mechanism]
8 1258.389648 -439.881592 -13.992046 0.000103 -0.000053 82.120995 1333.130127
9 1243.454468 -436.627808 -18.147881 0.000103 -0.000053 82.120995 1318.010742
10 1233.054810 -434.458618 -20.895636 0.000103 -0.000053 82.120995 1307.522461
[BN_LookIK]
8 193.241119 1380.371704 -0.002861 0.000000 89.965736 -31.038179 1393.832153
9 193.241119 1380.371704 -0.002861 0.000000 89.965736 -31.038179 1393.832153
10 193.241119 1380.371704 -0.002861 0.000000 89.965736 -31.038179 1393.832153
[bottomMouth]
8 -435.092926 615.759399 -0.000954 -0.000022 0.000016 73.527184 753.966492
9 -435.092926 615.759399 -0.000954 -0.000022 0.000016 73.527184 753.966492
10 -435.092926 615.759399 -0.000954 -0.000022 0.000016 73.527184 753.966492
[L_Mouth01]
8 554.440979 7.658243 838.222046 150.204178 23.759130 109.605339 1005.027161
9 554.440979 7.658243 838.222046 150.204178 23.759130 109.605339 1005.027161
10 554.440979 7.658243 838.222046 150.204178 23.759130 109.605339 1005.027161
[L_mouthFront]
8 551.629089 934.514771 339.150421 0.000081 2.804060 79.119301 1136.941284
9 551.629089 934.514771 339.150421 0.000081 2.804060 79.119301 1136.941284
10 551.629089 934.514771 339.150421 0.000081 2.804060 79.119301 1136.941284
[mouthGun]
8 55.332661 1627.420898 0.000000 0.000023 0.000009 -11.038128 1628.361328
9 55.332661 1627.420898 0.000000 0.000023 0.000009 -11.038128 1628.361328
10 55.332661 1627.420898 0.000000 0.000023 0.000009 -11.038128 1628.361328
[R_Mouth01]
8 554.442383 7.659197 -838.223938 29.795891 -23.759109 109.605331 1005.029541
9 554.442383 7.659197 -838.223938 29.795891 -23.759109 109.605331 1005.029541
10 554.442383 7.659197 -838.223938 29.795891 -23.759109 109.605331 1005.029541
[R_mouthFront]
8 551.629089 934.514282 -339.151367 0.000029 -2.803930 79.119133 1136.941162
9 551.629089 934.514282 -339.151367 0.000029 -2.803930 79.119133 1136.941162
10 551.629089 934.514282 -339.151367 0.000029 -2.803930 79.119133 1136.941162
[TopMouth]
8 461.269867 -56.106091 -0.008583 -0.000059 -0.000268 92.025169 464.669525
9 461.269867 -56.106091 -0.008583 -0.000059 -0.000268 92.025169 464.669525
10 461.269867 -56.106091 -0.008583 -0.000059 -0.000268 92.025169 464.669525
[weapon_bone]
8 -987.239868 1448.372803 0.001431 0.000000 89.965736 -31.038221 1752.833740
9 -987.239868 1448.372803 0.001431 0.000000 89.965736 -31.038221 1752.833740
10 -987.239868 1448.372803 0.001431 0.000000 89.965736 -31.038221 1752.833740
